<svg width="59" height="73" viewBox="0 0 59 73" fill="none" xmlns="http://www.w3.org/2000/svg">
<path d="M23.5341 73H-0.00994298V0.272725H24.2798C31.4058 0.272725 37.5256 1.72869 42.6392 4.64062C47.7528 7.52888 51.6709 11.6837 54.3935 17.1051C57.1397 22.5028 58.5128 28.9777 58.5128 36.5298C58.5128 44.1056 57.1278 50.616 54.358 56.0611C51.6117 61.5062 47.6345 65.6965 42.4261 68.6321C37.2178 71.544 30.9205 73 23.5341 73ZM10.9631 63.4119H22.9304C28.4702 63.4119 33.0748 62.3703 36.7443 60.2869C40.4138 58.1799 43.16 55.1378 44.983 51.1605C46.8059 47.1596 47.7173 42.2827 47.7173 36.5298C47.7173 30.8243 46.8059 25.983 44.983 22.0057C43.1837 18.0284 40.4967 15.0099 36.9219 12.9503C33.3471 10.8906 28.9081 9.86079 23.6051 9.86079H10.9631V63.4119Z" fill="url(#paint0_linear_113_10)"/>
<defs>
<linearGradient id="paint0_linear_113_10" x1="-8" y1="2.92701" x2="63.0827" y2="72.0448" gradientUnits="userSpaceOnUse">
<stop stop-color="#5A77BD"/>
<stop offset="1" stop-color="#394671"/>
</linearGradient>
</defs>
</svg>
